<svg width="2209" height="698" viewBox="0 0 2209 698" fill="none" xmlns="http://www.w3.org/2000/svg">
<path d="M37.68 697.144C26.7573 697.144 17.8827 693.048 11.056 684.856C4.22934 676.664 0.816002 666.765 0.816002 655.16C0.816002 642.189 5.25334 630.925 14.128 621.368C23.0027 611.128 33.2427 606.008 44.848 606.008C55.088 606.008 63.6213 610.104 70.448 618.296C77.9573 625.805 81.712 635.021 81.712 645.944C81.712 660.28 77.2747 672.568 68.4 682.808C59.5253 692.365 49.2853 697.144 37.68 697.144ZM194.68 697.144C183.757 697.144 174.883 693.048 168.056 684.856C161.229 676.664 157.816 666.765 157.816 655.16C157.816 642.189 162.253 630.925 171.128 621.368C180.003 611.128 190.243 606.008 201.848 606.008C212.088 606.008 220.621 610.104 227.448 618.296C234.957 625.805 238.712 635.021 238.712 645.944C238.712 660.28 234.275 672.568 225.4 682.808C216.525 692.365 206.285 697.144 194.68 697.144ZM351.68 697.144C340.757 697.144 331.883 693.048 325.056 684.856C318.229 676.664 314.816 666.765 314.816 655.16C314.816 642.189 319.253 630.925 328.128 621.368C337.003 611.128 347.243 606.008 358.848 606.008C369.088 606.008 377.621 610.104 384.448 618.296C391.957 625.805 395.712 635.021 395.712 645.944C395.712 660.28 391.275 672.568 382.4 682.808C373.525 692.365 363.285 697.144 351.68 697.144ZM549.64 697.144C540.765 697.144 532.915 694.072 526.088 687.928C519.944 681.784 516.872 674.957 516.872 667.448V215.864C516.872 206.989 519.944 199.821 526.088 194.36C532.915 188.216 540.765 185.144 549.64 185.144C558.515 185.144 566.024 188.216 572.168 194.36C578.312 199.821 581.384 206.989 581.384 215.864V377.656C601.181 316.216 628.488 269.112 663.304 236.344C698.803 202.893 738.739 186.168 783.112 186.168C820.659 186.168 850.355 195.725 872.2 214.84C894.045 233.955 909.747 264.333 919.304 305.976C928.861 346.936 933.64 402.232 933.64 471.864C933.64 540.131 933.299 584.845 932.616 606.008V664.376C932.616 673.251 929.544 681.101 923.4 687.928C917.939 694.072 910.771 697.144 901.896 697.144C893.704 697.144 886.536 694.072 880.392 687.928C874.248 681.101 871.176 673.592 871.176 665.4V608.056C870.493 586.893 870.152 542.861 870.152 475.96C870.152 412.472 866.739 364.344 859.912 331.576C853.768 298.808 843.869 276.621 830.216 265.016C817.245 252.728 798.472 246.584 773.896 246.584C750.685 246.584 727.816 255.117 705.288 272.184C682.76 289.251 662.963 313.485 645.896 344.888C623.368 385.848 606.984 424.419 596.744 460.6C587.187 496.781 582.067 533.987 581.384 572.216L580.36 663.352C580.36 672.909 577.288 681.101 571.144 687.928C565.683 694.072 558.515 697.144 549.64 697.144ZM1122.81 105.272C1113.93 105.272 1106.42 102.2 1100.28 96.056C1094.14 89.912 1091.06 82.4026 1091.06 73.528L1092.09 31.5439C1092.09 23.352 1095.5 16.184 1102.33 10.04C1109.15 3.89598 1116.66 0.823975 1124.86 0.823975C1133.05 0.823975 1140.22 4.2373 1146.36 11.064C1152.5 17.208 1155.58 24.376 1155.58 32.568L1154.55 74.5519C1154.55 83.4266 1151.14 90.936 1144.31 97.08C1138.17 102.541 1131 105.272 1122.81 105.272ZM1116.66 697.144C1107.79 697.144 1099.94 694.072 1093.11 687.928C1086.29 681.101 1082.87 673.251 1082.87 664.376L1089.02 219.96C1089.02 211.085 1092.43 203.235 1099.26 196.408C1106.08 189.581 1113.93 186.168 1122.81 186.168C1131.68 186.168 1139.19 189.581 1145.34 196.408C1152.16 202.552 1155.58 210.403 1155.58 219.96L1149.43 664.376C1149.43 673.251 1146.02 681.101 1139.19 687.928C1133.05 694.072 1125.54 697.144 1116.66 697.144ZM1505.34 697.144C1465.74 697.144 1428.54 687.587 1393.72 668.472C1359.59 648.675 1332.28 621.709 1311.8 587.576C1292 553.443 1282.1 515.896 1282.1 474.936C1282.1 428.515 1292.69 383.117 1313.85 338.744C1335.69 293.688 1364.37 257.165 1399.86 229.176C1435.36 200.504 1472.23 186.168 1510.46 186.168C1545.95 186.168 1574.97 191.971 1597.5 203.576C1620.71 215.181 1642.89 233.272 1664.06 257.848C1669.52 263.309 1672.25 270.477 1672.25 279.352C1672.25 288.227 1669.18 295.736 1663.03 301.88C1657.57 308.024 1650.4 311.096 1641.53 311.096C1631.97 311.096 1624.12 307.341 1617.98 299.832C1602.96 282.083 1587.6 268.771 1571.9 259.896C1556.19 250.339 1536.4 245.56 1512.5 245.56C1485.2 245.56 1458.57 256.483 1432.63 278.328C1406.69 300.173 1385.53 328.845 1369.14 364.344C1352.76 399.16 1344.57 435.341 1344.57 472.888C1344.57 507.021 1352.42 536.717 1368.12 561.976C1384.5 586.552 1404.98 605.325 1429.56 618.296C1454.82 631.267 1480.08 637.752 1505.34 637.752C1564.05 637.752 1609.78 614.2 1642.55 567.096C1651.43 554.808 1660.98 548.664 1671.22 548.664C1680.1 548.664 1687.61 551.736 1693.75 557.88C1699.9 564.024 1702.97 571.192 1702.97 579.384C1702.97 586.211 1699.55 594.061 1692.73 602.936C1674.98 628.877 1649.38 651.064 1615.93 669.496C1582.48 687.928 1545.61 697.144 1505.34 697.144ZM2031.08 697.144C1981.25 697.144 1936.87 686.221 1897.96 664.376C1859.05 641.848 1829.01 611.811 1807.85 574.264C1786.69 536.717 1776.1 495.757 1776.1 451.384C1776.1 404.963 1785.66 361.613 1804.78 321.336C1824.57 280.376 1851.88 247.608 1886.7 223.032C1921.51 198.456 1961.45 186.168 2006.5 186.168C2047.46 186.168 2082.28 194.019 2110.95 209.72C2140.31 225.421 2162.15 244.195 2176.49 266.04C2191.51 287.885 2199.02 307.341 2199.02 324.408C2199.02 336.696 2190.82 347.619 2174.44 357.176L1857 538.424C1874.07 571.192 1897.28 596.109 1926.63 613.176C1955.99 629.56 1990.46 637.752 2030.06 637.752C2051.9 637.752 2074.77 632.291 2098.66 621.368C2123.24 610.445 2142.7 597.475 2157.03 582.456C2161.81 575.629 2168.64 572.216 2177.51 572.216C2186.39 572.216 2193.55 575.288 2199.02 581.432C2205.16 586.893 2208.23 594.061 2208.23 602.936C2208.23 609.763 2205.5 616.589 2200.04 623.416C2181.61 644.579 2156.35 662.328 2124.26 676.664C2092.86 690.317 2061.8 697.144 2031.08 697.144ZM2135.53 316.216C2125.97 293.005 2110.95 275.597 2090.47 263.992C2069.99 252.387 2042.34 246.584 2007.53 246.584C1974.76 246.584 1945.41 255.8 1919.46 274.232C1893.52 291.981 1873.04 316.216 1858.02 346.936C1843.69 377.656 1836.18 411.448 1835.5 448.312C1835.5 461.965 1836.18 472.888 1837.54 481.08L2135.53 316.216Z" fill="white"/>
</svg>
