<svg width="434" height="595" viewBox="0 0 434 595" fill="none" xmlns="http://www.w3.org/2000/svg">
<path d="M216.5 463.342C176.1 463.342 142.4 434.742 134.4 396.742H0C9.5 507.242 102.2 593.942 215.1 593.942C328 593.942 420.8 507.242 430.2 396.742H298.6C290.6 434.842 256.9 463.342 216.5 463.342Z" fill="white"/>
<path d="M264.5 588.342C354.1 567.342 422.2 490.642 430.2 396.742H377.2C371.9 481.942 327.2 554.142 264.5 588.342Z" fill="#DFDFDF"/>
<path d="M266 379.442C265.9 379.442 265.9 379.442 266 379.442C265.9 373.342 264.8 367.542 262.8 362.142C255.8 343.342 237.7 330.042 216.5 330.042C195.3 330.042 177.2 343.442 170.2 362.142C168.2 367.542 167.1 373.342 167.1 379.442H167.2C167.2 385.542 168.3 391.342 170.3 396.742C177.3 415.542 195.4 428.842 216.6 428.842C237.8 428.842 255.9 415.442 262.9 396.742C264.9 391.442 266 385.542 266 379.442Z" fill="white"/>
<path d="M216.6 295.642C257 295.642 290.7 324.242 298.7 362.242H433.1C423.6 251.642 330.9 164.942 217.9 164.942C104.9 164.942 12.3 251.642 2.79999 362.142H134.5C142.5 324.142 176.2 295.642 216.6 295.642Z" fill="white"/>
<path d="M377.2 362.142H433C424.8 266.642 354.4 188.842 262.5 169.542C326.3 203.242 371.8 276.142 377.2 362.142Z" fill="white"/>
<path d="M120.999 66.8943C119.704 66.8561 118.399 67.0145 117.145 67.3795C97.7838 71.937 78.593 77.2891 59.8625 83.9244C45.8672 88.8249 32.211 94.861 19.8475 102.986C14.822 106.299 9.94716 109.828 5.37214 113.719C4.29096 114.65 3.10032 115.63 2.79999 117.1C4.26159 125.941 12.8607 130.704 20.2888 134.399C32.4922 139.897 46.2465 143.053 59.7012 141.563C55.6968 138.231 50.1307 137.702 45.896 134.752C44.1742 133.488 44.1349 131.213 43.6744 129.361C39.5398 130.165 35.6149 131.713 31.5204 132.644C35.2946 130.371 39.3996 128.694 43.3239 126.695C64.3069 117.884 86.9911 114.09 109.486 111.072C125.163 109.396 141.171 108.867 156.337 104.231C155.106 100.898 154.485 96.0083 150.09 95.4888C140.64 90.657 136.116 80.6988 130.67 72.2896C128.673 68.8936 124.884 67.0087 120.999 66.8943Z" fill="white"/>
<path d="M315.12 66.9071C312.118 66.8621 309.12 67.7262 306.973 69.8689C303.939 72.966 302.177 76.9645 299.854 80.5418C296.531 86.2068 292.237 91.4608 286.551 94.9892C285.089 95.9301 282.867 95.7534 281.996 97.4686C280.695 99.566 279.863 101.939 279.412 104.34C294.599 108.77 310.516 109.239 326.144 111.151C350.931 114.209 375.998 118.658 398.583 129.586C400.495 130.606 402.447 131.624 404.36 132.673C400.245 131.634 396.201 130.321 392.126 129.164C391.456 131.164 391.385 133.683 389.383 134.937C385.208 137.691 379.753 138.202 375.969 141.544C382.396 142.387 388.912 141.799 395.259 140.633C407.612 138.28 420.206 133.782 429.226 124.863L429.336 124.902C431.318 122.285 432.4 119.198 432.8 115.973C418.344 102.869 400.866 93.2541 382.536 86.3836C361.903 78.5918 340.6 72.623 319.137 67.4971C317.851 67.1357 316.485 66.9275 315.12 66.9071V66.9071Z" fill="white"/>
<path d="M217.827 0.00134309C216.959 -0.0304855 216.093 0.502706 215.932 1.67392C212.369 13.1704 209.196 25.0593 202.469 35.2719C200.046 39.0354 196.551 42.0243 192.607 44.1903C183.077 49.5221 172.446 52.4721 162.035 55.6672C160.393 56.0887 159.061 57.1375 157.88 58.2744C159.081 59.2545 160.332 60.2542 161.884 60.7051C173.076 64.204 184.668 67.2624 194.689 73.5056C200.626 77.0928 204.1 83.267 207.003 89.2652H207.093C210.807 97.6352 213.34 106.417 216.063 115.12C216.834 117.629 219.908 116.169 219.958 114.101C222.24 105.751 225.123 97.586 228.296 89.5394L228.076 88.9622L228.767 88.7655C230.649 85.6096 232.131 82.2091 234.493 79.3374C237.386 75.4268 241.671 72.8787 245.936 70.6343C247.488 69.909 249.06 69.1833 250.632 68.4678C258.09 65.4393 265.807 63.1068 273.516 60.784C275.037 60.1273 277.571 59.6767 277.13 57.5106C275.729 56.3639 273.987 55.756 272.285 55.2365C262.154 52.208 251.873 49.209 242.663 43.985C238.709 41.7896 235.304 38.6918 232.921 34.9086C226.394 24.7744 223.202 13.082 219.738 1.72273C219.568 0.629925 218.696 0.0331937 217.827 0.00134309H217.827Z" fill="white"/>
</svg>