<svg width="13376" height="3798" viewBox="0 0 13376 3798" fill="none" xmlns="http://www.w3.org/2000/svg">
<path d="M714.694 1064.59L970.163 323.5H848.756L593.288 1064.59H714.694ZM1092.83 323.5L1348.29 1064.59H1470.17L1214.7 323.5H1092.83ZM1967.36 1107.72V1006H1539.86V1107.72H1967.36ZM2185.18 1064.59L2440.65 323.5H2319.24L2063.78 1064.59H2185.18ZM2563.31 323.5L2818.78 1064.59H2940.66L2685.19 323.5H2563.31ZM161.719 1994.5V2004.81C161.719 2049.19 165 2090.75 171.562 2129.5C178.438 2168.25 187.656 2204.03 199.219 2236.84C210.781 2269.97 224.219 2300.12 239.531 2327.31C255.156 2354.5 271.562 2378.41 288.75 2399.03C305.938 2419.97 323.594 2437.78 341.719 2452.47C360.156 2467.16 377.969 2478.41 395.156 2486.22L420.469 2415.91C408.281 2406.53 395.938 2394.81 383.438 2380.75C370.938 2366.69 359.062 2350.12 347.812 2331.06C337.188 2313.56 327.188 2293.09 317.812 2269.66C308.75 2246.22 300.781 2220.75 293.906 2193.25C288.906 2173.56 284.219 2147.16 279.844 2114.03C275.781 2080.91 273.75 2044.81 273.75 2005.75V1993.56C273.75 1953.88 275.938 1917.16 280.312 1883.41C284.688 1849.66 290.469 1818.88 297.656 1791.06C305.781 1762.31 315.156 1735.75 325.781 1711.38C336.719 1687 348.438 1665.91 360.938 1648.09C370.625 1634.34 380.469 1622.16 390.469 1611.53C400.469 1600.91 410.469 1591.84 420.469 1584.34L395.156 1513.09C377.969 1520.91 360.156 1532.16 341.719 1546.84C323.594 1561.22 305.938 1578.88 288.75 1599.81C271.562 1620.75 255.156 1644.81 239.531 1672C224.219 1699.19 210.781 1729.19 199.219 1762C187.656 1795.12 178.438 1831.22 171.562 1870.28C165 1909.03 161.719 1950.44 161.719 1994.5ZM1028.61 2013.72V2023.56C1028.61 2060.75 1033.92 2095.12 1044.54 2126.69C1055.17 2157.94 1070.79 2185.12 1091.42 2208.25C1111.73 2231.38 1136.73 2249.5 1166.42 2262.62C1196.42 2275.44 1230.48 2281.84 1268.61 2281.84C1306.42 2281.84 1340.17 2275.44 1369.86 2262.62C1399.54 2249.5 1424.54 2231.38 1444.86 2208.25C1465.17 2185.12 1480.64 2157.94 1491.26 2126.69C1501.89 2095.12 1507.2 2060.75 1507.2 2023.56V2013.72C1507.2 1976.84 1501.89 1942.78 1491.26 1911.53C1480.64 1879.97 1465.17 1852.62 1444.86 1829.5C1424.23 1806.38 1399.08 1788.25 1369.39 1775.12C1339.7 1762 1305.79 1755.44 1267.67 1755.44C1229.54 1755.44 1195.64 1762 1165.95 1775.12C1136.58 1788.25 1111.73 1806.38 1091.42 1829.5C1070.79 1852.62 1055.17 1879.97 1044.54 1911.53C1033.92 1942.78 1028.61 1976.84 1028.61 2013.72ZM1158.92 2023.56V2013.72C1158.92 1993.09 1160.95 1973.56 1165.01 1955.12C1169.08 1936.69 1175.48 1920.44 1184.23 1906.38C1192.98 1892.31 1204.23 1881.22 1217.98 1873.09C1231.73 1864.97 1248.29 1860.91 1267.67 1860.91C1287.36 1860.91 1304.08 1864.97 1317.83 1873.09C1331.58 1881.22 1342.83 1892.31 1351.58 1906.38C1360.01 1920.44 1366.26 1936.69 1370.33 1955.12C1374.39 1973.56 1376.42 1993.09 1376.42 2013.72V2023.56C1376.42 2044.81 1374.39 2064.81 1370.33 2083.56C1366.26 2102 1360.01 2118.09 1351.58 2131.84C1342.83 2145.91 1331.58 2157 1317.83 2165.12C1304.08 2173.25 1287.67 2177.31 1268.61 2177.31C1248.92 2177.31 1232.04 2173.25 1217.98 2165.12C1204.23 2157 1192.98 2145.91 1184.23 2131.84C1175.48 2118.09 1169.08 2102 1165.01 2083.56C1160.95 2064.81 1158.92 2044.81 1158.92 2023.56ZM1668.3 2196.53C1668.3 2220.59 1676.43 2240.75 1692.68 2257C1708.93 2273.25 1730.96 2281.38 1758.77 2281.38C1786.27 2281.38 1808.14 2273.41 1824.39 2257.47C1840.96 2241.22 1849.24 2220.91 1849.24 2196.53C1849.24 2172.16 1841.11 2151.69 1824.86 2135.12C1808.93 2118.56 1786.89 2110.28 1758.77 2110.28C1730.33 2110.28 1708.14 2118.72 1692.21 2135.59C1676.27 2152.16 1668.3 2172.47 1668.3 2196.53ZM2008.93 2013.72V2023.56C2008.93 2060.75 2014.24 2095.12 2024.87 2126.69C2035.49 2157.94 2051.12 2185.12 2071.74 2208.25C2092.06 2231.38 2117.06 2249.5 2146.74 2262.62C2176.74 2275.44 2210.81 2281.84 2248.93 2281.84C2286.74 2281.84 2320.49 2275.44 2350.18 2262.62C2379.87 2249.5 2404.87 2231.38 2425.18 2208.25C2445.49 2185.12 2460.96 2157.94 2471.59 2126.69C2482.21 2095.12 2487.53 2060.75 2487.53 2023.56V2013.72C2487.53 1976.84 2482.21 1942.78 2471.59 1911.53C2460.96 1879.97 2445.49 1852.62 2425.18 1829.5C2404.56 1806.38 2379.4 1788.25 2349.71 1775.12C2320.03 1762 2286.12 1755.44 2247.99 1755.44C2209.87 1755.44 2175.96 1762 2146.28 1775.12C2116.9 1788.25 2092.06 1806.38 2071.74 1829.5C2051.12 1852.62 2035.49 1879.97 2024.87 1911.53C2014.24 1942.78 2008.93 1976.84 2008.93 2013.72ZM2139.24 2023.56V2013.72C2139.24 1993.09 2141.28 1973.56 2145.34 1955.12C2149.4 1936.69 2155.81 1920.44 2164.56 1906.38C2173.31 1892.31 2184.56 1881.22 2198.31 1873.09C2212.06 1864.97 2228.62 1860.91 2247.99 1860.91C2267.68 1860.91 2284.4 1864.97 2298.15 1873.09C2311.9 1881.22 2323.15 1892.31 2331.9 1906.38C2340.34 1920.44 2346.59 1936.69 2350.65 1955.12C2354.71 1973.56 2356.74 1993.09 2356.74 2013.72V2023.56C2356.74 2044.81 2354.71 2064.81 2350.65 2083.56C2346.59 2102 2340.34 2118.09 2331.9 2131.84C2323.15 2145.91 2311.9 2157 2298.15 2165.12C2284.4 2173.25 2267.99 2177.31 2248.93 2177.31C2229.24 2177.31 2212.37 2173.25 2198.31 2165.12C2184.56 2157 2173.31 2145.91 2164.56 2131.84C2155.81 2118.09 2149.4 2102 2145.34 2083.56C2141.28 2064.81 2139.24 2044.81 2139.24 2023.56ZM3353.94 2004.81V1994.5C3353.94 1951.69 3350.51 1911.22 3343.63 1873.09C3336.76 1834.66 3327.38 1798.88 3315.51 1765.75C3303.63 1732.62 3289.73 1702.47 3273.79 1675.28C3258.16 1647.78 3241.44 1623.25 3223.63 1601.69C3205.82 1580.44 3187.54 1562.31 3168.79 1547.31C3150.04 1532.31 3131.76 1520.91 3113.94 1513.09L3089.1 1582.94C3098.48 1590.12 3107.85 1598.88 3117.23 1609.19C3126.91 1619.19 3136.29 1630.59 3145.35 1643.41C3158.79 1662.78 3171.44 1685.75 3183.32 1712.31C3195.51 1738.88 3205.82 1768.88 3214.26 1802.31C3220.82 1829.19 3225.98 1858.56 3229.73 1890.44C3233.79 1922.31 3235.82 1956.69 3235.82 1993.56V2005.75C3235.82 2043.56 3233.79 2078.72 3229.73 2111.22C3225.98 2143.72 3220.82 2173.41 3214.26 2200.28C3206.44 2229.66 3197.38 2256.22 3187.07 2279.97C3177.07 2303.72 3165.98 2324.97 3153.79 2343.72C3143.48 2359.66 3132.85 2373.56 3121.91 2385.44C3110.98 2397.62 3100.04 2407.78 3089.1 2415.91L3113.94 2486.22C3131.76 2478.41 3150.04 2467 3168.79 2452C3187.54 2437 3205.82 2418.72 3223.63 2397.16C3241.44 2375.91 3258.16 2351.53 3273.79 2324.03C3289.73 2296.84 3303.63 2266.69 3315.51 2233.56C3327.38 2200.44 3336.76 2164.81 3343.63 2126.69C3350.51 2088.25 3353.94 2047.62 3353.94 2004.81ZM565.631 3470.97L987.506 3298.94V3192.53L565.631 3020.97V3147.06L834.694 3235.66L862.819 3245.03L834.225 3254.41L565.631 3344.41V3470.97ZM1570.33 3215.97H1675.33L1756.43 3003.16L1766.27 2963.78L1776.11 3003.16L1858.61 3215.97H1963.14L1814.08 2855.5H1719.86L1570.33 3215.97ZM2938.78 3470.5V3343.47L2681.91 3257.69L2650.03 3246.44L2681.91 3234.72L2938.78 3147.53V3020.97L2523.94 3193V3298.47L2938.78 3470.5Z" fill="white"/>
<path d="M4821.1 2334.05C4788.39 2334.05 4761.29 2327.46 4739.8 2314.28C4718.81 2301.09 4702.21 2283.51 4690 2261.54C4677.3 2240.06 4668.51 2215.15 4663.63 2186.83C4658.75 2158.03 4656.31 2128.24 4656.31 2097.48V2075.51C4656.31 2045.23 4658.75 2015.94 4663.63 1987.62C4669 1959.29 4678.04 1934.15 4690.73 1912.18C4702.94 1890.2 4719.54 1872.62 4740.54 1859.44C4761.53 1846.26 4788.14 1839.67 4820.37 1839.67C4842.34 1839.67 4862.61 1843.57 4881.16 1851.38C4899.71 1858.71 4915.58 1868.72 4928.77 1881.41C4941.95 1894.11 4951.96 1909.25 4958.8 1926.82C4965.63 1944.4 4968.56 1962.96 4967.59 1982.49H5159.48C5160.46 1935.61 5152.64 1893.38 5136.04 1855.78C5119.44 1817.69 5096.25 1785.22 5066.46 1758.37C5036.19 1732 5000.3 1711.49 4958.8 1696.84C4917.29 1682.2 4872.13 1674.87 4823.3 1674.87C4762.26 1674.87 4708.55 1685.37 4662.17 1706.37C4616.27 1727.36 4577.69 1755.93 4546.44 1792.06C4515.19 1828.19 4491.76 1870.67 4476.13 1919.5C4460.51 1967.84 4452.69 2019.84 4452.69 2075.51V2097.48C4452.69 2153.14 4460.51 2205.39 4476.13 2254.22C4492.24 2302.56 4515.93 2344.79 4547.18 2380.93C4577.94 2417.06 4616.51 2445.62 4662.9 2466.62C4709.29 2487.13 4763.24 2497.38 4824.76 2497.38C4870.17 2497.38 4913.14 2490.3 4953.67 2476.14C4994.69 2461.49 5030.57 2441.47 5061.34 2416.08C5092.1 2390.69 5116.27 2360.42 5133.85 2325.26C5151.91 2290.11 5160.46 2252.02 5159.48 2211H4967.59C4968.56 2229.56 4965.14 2246.4 4957.33 2261.54C4950.01 2276.68 4939.51 2289.62 4925.84 2300.36C4912.17 2311.1 4896.3 2319.4 4878.23 2325.26C4860.16 2331.12 4841.12 2334.05 4821.1 2334.05ZM5866.27 2482H6072.81V2469.55C6062.56 2449.53 6054.74 2425.6 6049.37 2397.77C6044 2369.94 6041.32 2334.78 6041.32 2292.3V1952.46C6041.32 1906.56 6032.77 1866.28 6015.68 1831.61C5998.59 1796.45 5974.91 1767.4 5944.64 1744.45C5914.36 1721.5 5878.47 1704.17 5836.97 1692.45C5795.96 1680.73 5751.52 1674.87 5703.67 1674.87C5650.45 1674.87 5603.08 1681.71 5561.58 1695.38C5520.56 1708.56 5485.9 1726.63 5457.58 1749.58C5428.77 1772.53 5406.79 1799.14 5391.66 1829.41C5377.01 1859.69 5369.69 1891.67 5369.69 1925.36H5573.3C5573.3 1911.2 5575.25 1898.26 5579.16 1886.54C5583.55 1874.82 5590.14 1864.81 5598.93 1856.51C5608.7 1847.23 5621.39 1840.15 5637.02 1835.27C5652.64 1829.9 5671.2 1827.21 5692.68 1827.21C5717.1 1827.21 5738.34 1830.39 5756.4 1836.74C5774.96 1842.6 5790.34 1851.14 5802.55 1862.37C5814.27 1873.11 5823.05 1886.05 5828.91 1901.19C5834.77 1915.84 5837.7 1932.44 5837.7 1950.99V1997.87H5724.18C5665.58 1997.87 5613.58 2003.24 5568.17 2013.98C5523.25 2024.24 5485.41 2039.37 5454.65 2059.39C5420.47 2081.37 5394.83 2109.44 5377.74 2143.62C5360.65 2177.31 5352.11 2216.13 5352.11 2260.08C5352.11 2294.26 5358.94 2325.99 5372.62 2355.29C5386.29 2384.1 5405.33 2409 5429.74 2430C5454.16 2450.99 5483.21 2467.35 5516.9 2479.07C5551.08 2490.79 5588.44 2496.65 5628.96 2496.65C5653.87 2496.65 5677.06 2494.21 5698.54 2489.32C5720.03 2484.93 5739.8 2478.58 5757.87 2470.28C5775.45 2462.47 5791.56 2453.19 5806.21 2442.45C5820.86 2431.71 5833.8 2420.23 5845.03 2408.03C5847.47 2422.19 5850.4 2435.61 5853.82 2448.31C5857.23 2461 5861.38 2472.23 5866.27 2482ZM5672.18 2339.18C5653.13 2339.18 5636.29 2336.98 5621.64 2332.59C5607.48 2327.7 5595.52 2321.36 5585.75 2313.54C5575.98 2305.24 5568.42 2295.23 5563.04 2283.51C5558.16 2271.31 5555.72 2258.12 5555.72 2243.96C5555.72 2225.9 5559.14 2209.29 5565.97 2194.16C5572.81 2178.53 5583.31 2165.11 5597.47 2153.88C5611.63 2143.13 5629.94 2134.83 5652.4 2128.97C5674.86 2122.62 5701.96 2119.45 5733.7 2119.45H5837.7V2255.68C5831.84 2265.94 5823.79 2276.19 5813.53 2286.44C5803.28 2296.21 5791.07 2305 5776.91 2312.81C5762.75 2320.62 5746.88 2326.97 5729.3 2331.85C5711.73 2336.74 5692.68 2339.18 5672.18 2339.18ZM6645.56 1495.43H6441.95V1689.52H6261.04V1839.67H6441.95V2200.02C6441.95 2252.26 6448.79 2297.19 6462.46 2334.78C6476.13 2371.89 6495.66 2402.41 6521.05 2426.34C6545.96 2450.75 6575.98 2468.82 6611.14 2480.54C6646.79 2491.77 6686.34 2497.38 6729.79 2497.38C6752.25 2497.38 6774.96 2496.16 6797.91 2493.72C6821.35 2491.77 6843.81 2488.84 6865.29 2484.93C6886.78 2481.02 6907.04 2476.14 6926.08 2470.28C6945.12 2463.93 6961.73 2456.61 6975.89 2448.31L6956.11 2308.42C6946.83 2310.86 6935.6 2313.3 6922.42 2315.74C6909.72 2318.18 6896.05 2320.38 6881.4 2322.33C6866.27 2324.77 6850.4 2326.73 6833.8 2328.19C6817.68 2329.66 6801.81 2330.39 6786.19 2330.39C6764.71 2330.39 6745.17 2327.95 6727.6 2323.06C6710.51 2318.18 6695.86 2309.88 6683.65 2298.16C6671.44 2286.93 6661.92 2271.79 6655.09 2252.75C6648.74 2233.22 6645.56 2209.05 6645.56 2180.24V1839.67H6941.46V1689.52H6645.56V1495.43ZM7546.44 1495.43H7342.83V1689.52H7161.92V1839.67H7342.83V2200.02C7342.83 2252.26 7349.67 2297.19 7363.34 2334.78C7377.01 2371.89 7396.54 2402.41 7421.93 2426.34C7446.83 2450.75 7476.86 2468.82 7512.02 2480.54C7547.66 2491.77 7587.21 2497.38 7630.67 2497.38C7653.13 2497.38 7675.84 2496.16 7698.79 2493.72C7722.22 2491.77 7744.69 2488.84 7766.17 2484.93C7787.65 2481.02 7807.92 2476.14 7826.96 2470.28C7846 2463.93 7862.61 2456.61 7876.77 2448.31L7856.99 2308.42C7847.71 2310.86 7836.48 2313.3 7823.3 2315.74C7810.6 2318.18 7796.93 2320.38 7782.28 2322.33C7767.15 2324.77 7751.28 2326.73 7734.68 2328.19C7718.56 2329.66 7702.69 2330.39 7687.07 2330.39C7665.58 2330.39 7646.05 2327.95 7628.47 2323.06C7611.38 2318.18 7596.74 2309.88 7584.53 2298.16C7572.32 2286.93 7562.8 2271.79 7555.96 2252.75C7549.62 2233.22 7546.44 2209.05 7546.44 2180.24V1839.67H7842.34V1689.52H7546.44V1495.43ZM8045.96 2078.44V2093.82C8045.96 2151.92 8054.26 2205.63 8070.86 2254.95C8087.46 2303.78 8111.87 2346.26 8144.1 2382.39C8175.84 2418.52 8214.9 2446.84 8261.29 2467.35C8308.16 2487.37 8361.38 2497.38 8420.96 2497.38C8480.04 2497.38 8532.77 2487.37 8579.16 2467.35C8625.54 2446.84 8664.61 2418.52 8696.35 2382.39C8728.08 2346.26 8752.25 2303.78 8768.86 2254.95C8785.46 2205.63 8793.76 2151.92 8793.76 2093.82V2078.44C8793.76 2020.82 8785.46 1967.6 8768.86 1918.77C8752.25 1869.45 8728.08 1826.73 8696.35 1790.59C8664.12 1754.46 8624.81 1726.14 8578.43 1705.63C8532.04 1685.12 8479.06 1674.87 8419.49 1674.87C8359.92 1674.87 8306.94 1685.12 8260.55 1705.63C8214.66 1726.14 8175.84 1754.46 8144.1 1790.59C8111.87 1826.73 8087.46 1869.45 8070.86 1918.77C8054.26 1967.6 8045.96 2020.82 8045.96 2078.44ZM8249.57 2093.82V2078.44C8249.57 2046.21 8252.74 2015.69 8259.09 1986.88C8265.44 1958.07 8275.45 1932.68 8289.12 1910.71C8302.79 1888.74 8320.37 1871.4 8341.85 1858.71C8363.34 1846.01 8389.22 1839.67 8419.49 1839.67C8450.25 1839.67 8476.38 1846.01 8497.86 1858.71C8519.34 1871.4 8536.92 1888.74 8550.59 1910.71C8563.78 1932.68 8573.54 1958.07 8579.89 1986.88C8586.24 2015.69 8589.41 2046.21 8589.41 2078.44V2093.82C8589.41 2127.02 8586.24 2158.27 8579.89 2187.57C8573.54 2216.38 8563.78 2241.52 8550.59 2263.01C8536.92 2284.98 8519.34 2302.31 8497.86 2315.01C8476.38 2327.7 8450.74 2334.05 8420.96 2334.05C8390.19 2334.05 8363.83 2327.7 8341.85 2315.01C8320.37 2302.31 8302.79 2284.98 8289.12 2263.01C8275.45 2241.52 8265.44 2216.38 8259.09 2187.57C8252.74 2158.27 8249.57 2127.02 8249.57 2093.82ZM9180.48 2364.08C9180.48 2401.68 9193.17 2433.17 9218.56 2458.56C9243.95 2483.95 9278.38 2496.65 9321.83 2496.65C9364.8 2496.65 9398.98 2484.2 9424.37 2459.29C9450.25 2433.9 9463.19 2402.17 9463.19 2364.08C9463.19 2325.99 9450.5 2294.01 9425.11 2268.13C9400.2 2242.25 9365.78 2229.31 9321.83 2229.31C9277.4 2229.31 9242.73 2242.5 9217.83 2268.87C9192.93 2294.74 9180.48 2326.48 9180.48 2364.08ZM9918.03 1357V1523.26H10155.3V2316.47H9918.03V2482H10588.2V2316.47H10361.1V1357H9918.03ZM11271.5 2482H11478.1V2469.55C11467.8 2449.53 11460 2425.6 11454.6 2397.77C11449.3 2369.94 11446.6 2334.78 11446.6 2292.3V1952.46C11446.6 1906.56 11438 1866.28 11421 1831.61C11403.9 1796.45 11380.2 1767.4 11349.9 1744.45C11319.6 1721.5 11283.7 1704.17 11242.2 1692.45C11201.2 1680.73 11156.8 1674.87 11108.9 1674.87C11055.7 1674.87 11008.4 1681.71 10966.9 1695.38C10925.8 1708.56 10891.2 1726.63 10862.8 1749.58C10834 1772.53 10812.1 1799.14 10796.9 1829.41C10782.3 1859.69 10775 1891.67 10775 1925.36H10978.6C10978.6 1911.2 10980.5 1898.26 10984.4 1886.54C10988.8 1874.82 10995.4 1864.81 11004.2 1856.51C11014 1847.23 11026.7 1840.15 11042.3 1835.27C11057.9 1829.9 11076.5 1827.21 11098 1827.21C11122.4 1827.21 11143.6 1830.39 11161.7 1836.74C11180.2 1842.6 11195.6 1851.14 11207.8 1862.37C11219.5 1873.11 11228.3 1886.05 11234.2 1901.19C11240 1915.84 11243 1932.44 11243 1950.99V1997.87H11129.5C11070.9 1997.87 11018.9 2003.24 10973.4 2013.98C10928.5 2024.24 10890.7 2039.37 10859.9 2059.39C10825.7 2081.37 10800.1 2109.44 10783 2143.62C10765.9 2177.31 10757.4 2216.13 10757.4 2260.08C10757.4 2294.26 10764.2 2325.99 10777.9 2355.29C10791.6 2384.1 10810.6 2409 10835 2430C10859.4 2450.99 10888.5 2467.35 10922.2 2479.07C10956.4 2490.79 10993.7 2496.65 11034.2 2496.65C11059.1 2496.65 11082.3 2494.21 11103.8 2489.32C11125.3 2484.93 11145.1 2478.58 11163.1 2470.28C11180.7 2462.47 11196.8 2453.19 11211.5 2442.45C11226.1 2431.71 11239.1 2420.23 11250.3 2408.03C11252.7 2422.19 11255.7 2435.61 11259.1 2448.31C11262.5 2461 11266.7 2472.23 11271.5 2482ZM11077.4 2339.18C11058.4 2339.18 11041.6 2336.98 11026.9 2332.59C11012.8 2327.7 11000.8 2321.36 10991 2313.54C10981.3 2305.24 10973.7 2295.23 10968.3 2283.51C10963.4 2271.31 10961 2258.12 10961 2243.96C10961 2225.9 10964.4 2209.29 10971.2 2194.16C10978.1 2178.53 10988.6 2165.11 11002.7 2153.88C11016.9 2143.13 11035.2 2134.83 11057.7 2128.97C11080.1 2122.62 11107.2 2119.45 11139 2119.45H11243V2255.68C11237.1 2265.94 11229.1 2276.19 11218.8 2286.44C11208.6 2296.21 11196.3 2305 11182.2 2312.81C11168 2320.62 11152.2 2326.97 11134.6 2331.85C11117 2336.74 11098 2339.18 11077.4 2339.18ZM12391.4 2093.82V2078.44C12391.4 2030.58 12387 1985.66 12378.2 1943.67C12369.9 1901.68 12357 1863.84 12339.4 1830.14C12328.2 1809.15 12315.2 1789.86 12300.6 1772.28C12285.9 1754.22 12269.6 1738.84 12251.5 1726.14C12229.1 1709.54 12203.4 1696.84 12174.6 1688.05C12146.3 1679.27 12115 1674.87 12080.9 1674.87C12056 1674.87 12032.8 1677.56 12011.3 1682.93C11990.3 1687.81 11970.8 1695.38 11952.7 1705.63C11940 1712.47 11928 1720.77 11916.8 1730.54C11905.6 1739.81 11895.1 1750.07 11885.3 1761.3V1357H11681.7V2482H11864.8L11874.3 2397.77C11882.6 2408.51 11891.4 2418.52 11900.7 2427.8C11910 2436.59 11920 2444.65 11930.7 2451.97C11950.7 2466.62 11973.2 2477.61 11998.1 2484.93C12023.5 2492.74 12051.6 2496.65 12082.3 2496.65C12116 2496.65 12146.8 2492.25 12174.6 2483.46C12202.9 2475.16 12228.3 2462.96 12250.8 2446.84C12275.7 2429.75 12297.2 2408.27 12315.2 2382.39C12333.8 2356.51 12348.7 2327.7 12359.9 2295.96C12370.2 2267.16 12378 2235.91 12383.4 2202.21C12388.7 2168.04 12391.4 2131.9 12391.4 2093.82ZM12187.8 2078.44V2093.82C12187.8 2114.32 12186.8 2134.1 12184.9 2153.14C12183.4 2172.19 12180.7 2189.76 12176.8 2205.88C12171.9 2227.85 12164.6 2247.62 12154.8 2265.2C12145.6 2282.29 12133.4 2296.21 12118.2 2306.95C12107.5 2314.76 12094.8 2320.87 12080.1 2325.26C12065.5 2329.66 12049.1 2331.85 12031.1 2331.85C12010.1 2331.85 11991.3 2329.41 11974.7 2324.53C11958.6 2319.65 11944.4 2312.57 11932.2 2303.29C11921.9 2295.96 11912.9 2287.42 11905.1 2277.65C11897.8 2267.4 11891.2 2256.17 11885.3 2243.96V1928.29C11889.7 1919.01 11894.6 1910.47 11900 1902.65C11905.3 1894.35 11911.2 1887.03 11917.5 1880.68C11930.7 1867.5 11946.6 1857.49 11965.1 1850.65C11983.7 1843.82 12005.2 1840.4 12029.6 1840.4C12047.7 1840.4 12063.8 1842.6 12077.9 1846.99C12092.1 1850.9 12104.8 1857 12116 1865.3C12133.1 1878.48 12145.8 1893.13 12154.1 1909.25C12162.9 1924.87 12170 1942.69 12175.3 1962.71C12179.7 1979.8 12182.9 1998.11 12184.9 2017.64C12186.8 2037.18 12187.8 2057.44 12187.8 2078.44ZM13089.4 2264.47C13089.4 2276.68 13086.2 2287.91 13079.9 2298.16C13074 2308.42 13065 2317.45 13052.8 2325.26C13040.1 2333.07 13023.7 2339.42 13003.7 2344.3C12984.2 2348.7 12961.2 2350.9 12934.9 2350.9C12912.9 2350.9 12891.4 2348.7 12870.4 2344.3C12849.9 2339.91 12831.6 2332.83 12815.5 2323.06C12799.4 2313.79 12786.2 2301.58 12775.9 2286.44C12765.7 2270.82 12759.8 2252.26 12758.4 2230.78H12564.3C12564.3 2263.01 12572.1 2295.23 12587.7 2327.46C12603.8 2359.2 12627.3 2387.52 12658 2412.42C12688.8 2437.81 12726.9 2458.32 12772.3 2473.94C12818.2 2489.57 12870.9 2497.38 12930.5 2497.38C12984.7 2497.38 13033.7 2491.52 13077.7 2479.8C13121.6 2467.6 13159.2 2450.75 13190.5 2429.27C13221.2 2407.78 13244.9 2382.39 13261.5 2353.09C13278.6 2323.31 13287.2 2290.84 13287.2 2255.68C13287.2 2217.6 13278.6 2184.88 13261.5 2157.54C13244.9 2129.71 13221.7 2106.02 13192 2086.49C13162.2 2067.45 13126.8 2051.82 13085.8 2039.62C13044.7 2027.41 13000.3 2017.4 12952.4 2009.59C12919.2 2004.71 12891.9 1999.09 12870.4 1992.74C12848.9 1985.91 12832.1 1978.34 12819.9 1970.04C12807.2 1962.22 12798.4 1953.44 12793.5 1943.67C12788.6 1933.42 12786.2 1922.43 12786.2 1910.71C12786.2 1898.99 12788.9 1888.01 12794.2 1877.75C12800.1 1867.01 12808.4 1857.73 12819.1 1849.92C12830.9 1841.13 12846 1834.29 12864.6 1829.41C12883.1 1824.53 12904.8 1822.09 12929.7 1822.09C12959 1822.09 12983.9 1825.75 13004.5 1833.07C13025.4 1840.4 13042 1850.16 13054.3 1862.37C13063 1871.65 13069.6 1882.15 13074 1893.87C13078.4 1905.1 13080.6 1917.3 13080.6 1930.49H13284.2C13284.2 1893.87 13276.2 1859.93 13260.1 1828.68C13244 1797.43 13220.8 1770.33 13190.5 1747.38C13159.7 1724.92 13122.4 1707.34 13078.4 1694.65C13034.5 1681.46 12984.9 1674.87 12929.7 1674.87C12877 1674.87 12829.6 1681.46 12787.7 1694.65C12745.7 1707.83 12710 1725.65 12680.7 1748.11C12651.4 1770.57 12629 1796.7 12613.3 1826.48C12597.7 1856.27 12589.9 1887.52 12589.9 1920.23C12589.9 1953.92 12597.5 1983.71 12612.6 2009.59C12628.2 2035.47 12649.7 2058.17 12677.1 2077.7C12704.4 2097.72 12737.1 2114.81 12775.2 2128.97C12813.8 2142.64 12856.3 2154.12 12902.6 2163.4C12939.3 2170.23 12969.5 2177.07 12993.5 2183.9C13017.4 2190.74 13036.7 2198.06 13051.3 2205.88C13065.5 2214.18 13075.3 2222.97 13080.6 2232.24C13086.5 2241.52 13089.4 2252.26 13089.4 2264.47Z" fill="white"/>
</svg>