<svg width="425" height="130" viewBox="0 0 425 130" fill="none" xmlns="http://www.w3.org/2000/svg">
<path d="M43.864 120.496V129.968H37.208C32.088 129.968 27.3093 129.115 22.872 127.408C18.52 125.787 14.68 123.397 11.352 120.24C8.10933 117.168 5.54933 113.328 3.672 108.72C1.88 104.112 0.984 98.864 0.984 92.976C0.984 88.9653 1.496 84.5707 2.52 79.792L9.56 46.768C11.352 38.4053 13.8693 31.28 17.112 25.392C20.44 19.504 24.408 14.7253 29.016 11.056C33.7093 7.30133 39 4.61333 44.888 2.992C50.8613 1.28533 57.3893 0.431992 64.472 0.431992H69.336V9.90399H63.448C58.1573 9.90399 53.1227 10.544 48.344 11.824C43.6507 13.104 39.384 15.28 35.544 18.352C31.704 21.424 28.376 25.52 25.56 30.64C22.744 35.6747 20.5253 41.9893 18.904 49.584L12.376 80.816C11.5227 84.7413 11.096 88.5387 11.096 92.208C11.096 96.9867 11.7787 101.125 13.144 104.624C14.5947 108.123 16.5573 111.067 19.032 113.456C21.592 115.845 24.5787 117.595 27.992 118.704C31.4053 119.899 35.16 120.496 39.256 120.496H43.864ZM124.671 41.136C124.671 43.6107 123.775 45.744 121.983 47.536C120.276 49.2427 118.186 50.096 115.711 50.096C113.236 50.096 111.103 49.2427 109.311 47.536C107.604 45.744 106.751 43.6107 106.751 41.136C106.751 40.5387 106.794 40.0267 106.879 39.6L109.183 28.592C109.866 25.3493 111.188 22.8747 113.151 21.168C115.114 19.4613 117.759 18.608 121.087 18.608H127.743V25.52H120.191C117.802 25.52 116.351 26.8 115.839 29.36L115.199 32.176H115.711C118.186 32.176 120.276 33.072 121.983 34.864C123.775 36.5707 124.671 38.6613 124.671 41.136ZM147.967 41.136C147.967 43.6107 147.071 45.744 145.279 47.536C143.572 49.2427 141.482 50.096 139.007 50.096C136.532 50.096 134.399 49.2427 132.607 47.536C130.9 45.744 130.047 43.6107 130.047 41.136C130.047 40.5387 130.09 40.0267 130.175 39.6L132.479 28.592C133.162 25.3493 134.484 22.8747 136.447 21.168C138.41 19.4613 141.055 18.608 144.383 18.608H151.039V25.52H143.487C141.098 25.52 139.647 26.8 139.135 29.36L138.495 32.176H139.007C141.482 32.176 143.572 33.072 145.279 34.864C147.071 36.5707 147.967 38.6613 147.967 41.136ZM220.07 99.248H218.534C216.23 103.344 213.286 106.459 209.702 108.592C206.118 110.725 201.766 111.792 196.646 111.792C191.014 111.792 186.449 110.213 182.95 107.056C179.451 103.813 177.702 99.0347 177.702 92.72C177.702 91.44 177.745 90.16 177.83 88.88C178.001 87.5147 178.299 86.0213 178.726 84.4L187.174 46.512H197.158L188.966 83.12C188.369 85.7653 188.07 88.24 188.07 90.544C188.07 98.3947 192.294 102.32 200.742 102.32C206.63 102.32 211.622 100.272 215.718 96.176C219.899 91.9947 222.758 86.448 224.294 79.536L231.718 46.512H241.702L230.054 99.248C229.883 99.9307 229.969 100.485 230.31 100.912C230.651 101.339 231.121 101.552 231.718 101.552C232.315 101.552 232.913 101.339 233.51 100.912L239.014 96.944L244.39 104.368L237.99 109.232C236.966 110.085 235.686 110.725 234.15 111.152C232.699 111.579 231.206 111.792 229.67 111.792C228.39 111.792 227.153 111.621 225.958 111.28C224.763 110.939 223.697 110.384 222.758 109.616C221.819 108.848 221.051 107.909 220.454 106.8C219.942 105.605 219.686 104.197 219.686 102.576C219.686 102.149 219.686 101.723 219.686 101.296C219.771 100.869 219.857 100.443 219.942 100.016L220.07 99.248ZM307.021 41.136C307.021 43.6107 306.125 45.744 304.333 47.536C302.626 49.2427 300.536 50.096 298.061 50.096C295.586 50.096 293.453 49.2427 291.661 47.536C289.954 45.744 289.101 43.6107 289.101 41.136C289.101 40.5387 289.144 40.0267 289.229 39.6L291.533 28.592C292.216 25.3493 293.538 22.8747 295.501 21.168C297.464 19.4613 300.109 18.608 303.437 18.608H310.093V25.52H302.541C300.152 25.52 298.701 26.8 298.189 29.36L297.549 32.176H298.061C300.536 32.176 302.626 33.072 304.333 34.864C306.125 36.5707 307.021 38.6613 307.021 41.136ZM330.317 41.136C330.317 43.6107 329.421 45.744 327.629 47.536C325.922 49.2427 323.832 50.096 321.357 50.096C318.882 50.096 316.749 49.2427 314.957 47.536C313.25 45.744 312.397 43.6107 312.397 41.136C312.397 40.5387 312.44 40.0267 312.525 39.6L314.829 28.592C315.512 25.3493 316.834 22.8747 318.797 21.168C320.76 19.4613 323.405 18.608 326.733 18.608H333.389V25.52H325.837C323.448 25.52 321.997 26.8 321.485 29.36L320.845 32.176H321.357C323.832 32.176 325.922 33.072 327.629 34.864C329.421 36.5707 330.317 38.6613 330.317 41.136ZM381.172 9.90399V0.431992H387.828C392.948 0.431992 397.684 1.28533 402.036 2.992C406.473 4.61333 410.313 7.00266 413.556 10.16C416.884 13.232 419.444 17.072 421.236 21.68C423.113 26.288 424.052 31.536 424.052 37.424C424.052 41.52 423.54 45.9147 422.516 50.608L415.476 83.632C413.684 91.9947 411.124 99.12 407.796 105.008C404.553 110.896 400.585 115.675 395.892 119.344C391.284 123.099 385.993 125.787 380.02 127.408C374.132 129.115 367.647 129.968 360.564 129.968H355.7V120.496H361.588C366.879 120.496 371.871 119.856 376.564 118.576C381.257 117.296 385.524 115.12 389.364 112.048C393.204 108.976 396.532 104.923 399.348 99.888C402.249 94.768 404.511 88.4107 406.132 80.816L412.66 49.584C413.513 45.6587 413.94 41.8613 413.94 38.192C413.94 33.4987 413.215 29.4027 411.764 25.904C410.399 22.32 408.436 19.3333 405.876 16.944C403.401 14.5547 400.457 12.8053 397.044 11.696C393.631 10.5013 389.876 9.90399 385.78 9.90399H381.172Z" fill="white"/>
</svg>
