<svg width="1634" height="138" viewBox="0 0 1634 138" fill="none" xmlns="http://www.w3.org/2000/svg">
<path d="M43.864 120.496V129.968H37.208C32.088 129.968 27.3093 129.115 22.872 127.408C18.52 125.787 14.68 123.397 11.352 120.24C8.10933 117.168 5.54933 113.328 3.672 108.72C1.88 104.112 0.984 98.864 0.984 92.976C0.984 88.9653 1.496 84.5707 2.52 79.792L9.56 46.768C11.352 38.4053 13.8693 31.28 17.112 25.392C20.44 19.504 24.408 14.7253 29.016 11.056C33.7093 7.30133 39 4.61333 44.888 2.992C50.8613 1.28533 57.3893 0.431992 64.472 0.431992H69.336V9.90399H63.448C58.1573 9.90399 53.1227 10.544 48.344 11.824C43.6507 13.104 39.384 15.28 35.544 18.352C31.704 21.424 28.376 25.52 25.56 30.64C22.744 35.6747 20.5253 41.9893 18.904 49.584L12.376 80.816C11.5227 84.7413 11.096 88.5387 11.096 92.208C11.096 96.9867 11.7787 101.125 13.144 104.624C14.5947 108.123 16.5573 111.067 19.032 113.456C21.592 115.845 24.5787 117.595 27.992 118.704C31.4053 119.899 35.16 120.496 39.256 120.496H43.864ZM164.646 41.136C164.646 43.6107 163.75 45.744 161.958 47.536C160.251 49.2427 158.161 50.096 155.686 50.096C153.211 50.096 151.078 49.2427 149.286 47.536C147.579 45.744 146.726 43.6107 146.726 41.136C146.726 40.5387 146.769 40.0267 146.854 39.6L149.158 28.592C149.841 25.3493 151.163 22.8747 153.126 21.168C155.089 19.4613 157.734 18.608 161.062 18.608H167.718V25.52H160.166C157.777 25.52 156.326 26.8 155.814 29.36L155.174 32.176H155.686C158.161 32.176 160.251 33.072 161.958 34.864C163.75 36.5707 164.646 38.6613 164.646 41.136ZM187.942 41.136C187.942 43.6107 187.046 45.744 185.254 47.536C183.547 49.2427 181.457 50.096 178.982 50.096C176.507 50.096 174.374 49.2427 172.582 47.536C170.875 45.744 170.022 43.6107 170.022 41.136C170.022 40.5387 170.065 40.0267 170.15 39.6L172.454 28.592C173.137 25.3493 174.459 22.8747 176.422 21.168C178.385 19.4613 181.03 18.608 184.358 18.608H191.014V25.52H183.462C181.073 25.52 179.622 26.8 179.11 29.36L178.47 32.176H178.982C181.457 32.176 183.547 33.072 185.254 34.864C187.046 36.5707 187.942 38.6613 187.942 41.136ZM300.02 99.248H298.484C296.18 103.344 293.236 106.459 289.652 108.592C286.068 110.725 281.716 111.792 276.596 111.792C270.964 111.792 266.399 110.213 262.9 107.056C259.401 103.813 257.652 99.0347 257.652 92.72C257.652 91.44 257.695 90.16 257.78 88.88C257.951 87.5147 258.249 86.0213 258.676 84.4L267.124 46.512H277.108L268.916 83.12C268.319 85.7653 268.02 88.24 268.02 90.544C268.02 98.3947 272.244 102.32 280.692 102.32C286.58 102.32 291.572 100.272 295.668 96.176C299.849 91.9947 302.708 86.448 304.244 79.536L311.668 46.512H321.652L310.004 99.248C309.833 99.9307 309.919 100.485 310.26 100.912C310.601 101.339 311.071 101.552 311.668 101.552C312.265 101.552 312.863 101.339 313.46 100.912L318.964 96.944L324.34 104.368L317.94 109.232C316.916 110.085 315.636 110.725 314.1 111.152C312.649 111.579 311.156 111.792 309.62 111.792C308.34 111.792 307.103 111.621 305.908 111.28C304.713 110.939 303.647 110.384 302.708 109.616C301.769 108.848 301.001 107.909 300.404 106.8C299.892 105.605 299.636 104.197 299.636 102.576C299.636 102.149 299.636 101.723 299.636 101.296C299.721 100.869 299.807 100.443 299.892 100.016L300.02 99.248ZM437.314 71.856C437.57 70.6613 437.741 69.68 437.826 68.912C437.911 68.0587 437.954 67.2053 437.954 66.352C437.954 62.256 436.717 59.2267 434.242 57.264C431.853 55.216 428.482 54.192 424.13 54.192C418.327 54.192 413.591 56.2827 409.922 60.464C406.253 64.56 403.735 69.808 402.37 76.208L395.202 110H385.218L398.786 46.512H408.77L406.85 55.728H408.386C410.519 51.888 413.293 49.1147 416.706 47.408C420.205 45.616 423.874 44.72 427.714 44.72C430.445 44.72 433.047 45.1893 435.522 46.128C437.997 46.9813 440.13 48.2613 441.922 49.968C443.799 51.6747 445.25 53.7653 446.274 56.24C447.383 58.7147 447.938 61.5733 447.938 64.816C447.938 66.9493 447.682 69.2107 447.17 71.6L441.026 100.016C440.855 100.699 440.941 101.211 441.282 101.552C441.623 101.893 442.05 102.064 442.562 102.064C443.074 102.064 443.543 101.893 443.97 101.552L449.346 97.584L454.722 105.136L449.73 108.848C447.17 110.811 444.311 111.792 441.154 111.792C439.874 111.792 438.637 111.621 437.442 111.28C436.247 111.024 435.181 110.555 434.242 109.872C433.303 109.104 432.535 108.123 431.938 106.928C431.341 105.733 431.042 104.24 431.042 102.448C431.042 101.339 431.213 99.9733 431.554 98.352L437.314 71.856ZM560.528 100.016C557.797 104.539 554.555 107.653 550.8 109.36C547.045 110.981 543.077 111.792 538.896 111.792C535.483 111.792 532.368 111.195 529.552 110C526.736 108.805 524.347 107.141 522.384 105.008C520.421 102.789 518.885 100.144 517.776 97.072C516.667 93.9147 516.112 90.4587 516.112 86.704C516.112 81.4133 516.923 76.2507 518.544 71.216C520.165 66.1813 522.512 61.7013 525.584 57.776C528.656 53.8507 532.411 50.6933 536.848 48.304C541.371 45.9147 546.533 44.72 552.336 44.72C556.859 44.72 560.613 45.6587 563.6 47.536C566.672 49.4133 568.763 52.4 569.872 56.496H571.408L579.344 18.608H589.328L572.176 99.248C571.92 100.784 572.475 101.552 573.84 101.552C574.352 101.552 574.907 101.339 575.504 100.912L580.112 97.584L585.616 105.136L579.856 109.488C578.917 110.171 577.765 110.725 576.4 111.152C575.12 111.579 573.669 111.792 572.048 111.792C570.768 111.792 569.531 111.621 568.336 111.28C567.141 110.939 566.032 110.427 565.008 109.744C564.069 108.976 563.301 108.037 562.704 106.928C562.107 105.733 561.808 104.283 561.808 102.576C561.808 102.149 561.808 101.723 561.808 101.296C561.893 100.869 561.979 100.443 562.064 100.016H560.528ZM541.968 102.32C545.381 102.32 548.624 101.552 551.696 100.016C554.853 98.3947 557.584 96.2187 559.888 93.488C562.277 90.7573 564.155 87.5573 565.52 83.888C566.885 80.1333 567.568 76.08 567.568 71.728C567.568 66.4373 566.245 62.2133 563.6 59.056C560.955 55.8133 557.115 54.192 552.08 54.192C548.069 54.192 544.485 55.088 541.328 56.88C538.256 58.5867 535.611 60.8907 533.392 63.792C531.173 66.608 529.467 69.8933 528.272 73.648C527.163 77.4027 526.608 81.2853 526.608 85.296C526.608 96.6453 531.728 102.32 541.968 102.32ZM661.086 81.328C660.915 82.0107 660.787 82.7787 660.702 83.632C660.617 84.4853 660.574 85.3813 660.574 86.32C660.574 91.0133 661.939 94.896 664.67 97.968C667.401 100.955 671.753 102.448 677.726 102.448C680.713 102.448 683.358 102.107 685.662 101.424C688.051 100.741 690.099 99.8027 691.806 98.608C693.513 97.328 694.963 95.92 696.158 94.384C697.438 92.7627 698.505 91.056 699.358 89.264L707.55 93.872C706.355 96.3467 704.862 98.6933 703.07 100.912C701.278 103.045 699.145 104.923 696.67 106.544C694.195 108.165 691.337 109.445 688.094 110.384C684.851 111.323 681.139 111.792 676.958 111.792C673.118 111.792 669.577 111.195 666.334 110C663.177 108.891 660.446 107.269 658.142 105.136C655.838 102.917 654.046 100.229 652.766 97.072C651.486 93.9147 650.846 90.3307 650.846 86.32C650.846 80.944 651.699 75.7813 653.406 70.832C655.113 65.7973 657.587 61.36 660.83 57.52C664.073 53.68 668.083 50.608 672.862 48.304C677.641 45.9147 683.059 44.72 689.118 44.72C693.385 44.72 697.097 45.4027 700.254 46.768C703.411 48.048 706.014 49.84 708.062 52.144C710.11 54.3627 711.646 56.9227 712.67 59.824C713.694 62.64 714.206 65.584 714.206 68.656C714.206 70.96 713.95 73.1787 713.438 75.312L712.03 81.328H661.086ZM687.838 54.192C684.851 54.192 682.035 54.6613 679.39 55.6C676.83 56.4533 674.483 57.6907 672.35 59.312C670.217 60.9333 668.382 62.8533 666.846 65.072C665.31 67.2053 664.115 69.552 663.262 72.112H703.966C704.222 70.7467 704.35 69.4667 704.35 68.272C704.35 63.664 702.771 60.1653 699.614 57.776C696.457 55.3867 692.531 54.192 687.838 54.192ZM845.228 46.512V55.728H821.036L805.676 127.664C804.993 130.907 803.628 133.296 801.58 134.832C799.617 136.368 797.441 137.136 795.052 137.136C792.321 137.136 790.103 136.581 788.396 135.472C786.775 134.363 785.367 132.869 784.172 130.992L778.54 121.904L786.348 116.912L791.724 125.488C792.321 126.512 793.089 127.024 794.028 127.024C794.711 127.024 795.18 126.811 795.436 126.384C795.777 126.043 796.033 125.616 796.204 125.104L811.052 55.728H791.468V46.512H813.1L816.428 30.384C817.111 27.4827 818.561 25.0933 820.78 23.216C822.999 21.3387 825.559 20.4 828.46 20.4H851.372V29.616H830.124C827.735 29.616 826.284 30.896 825.772 33.456L823.084 46.512H845.228ZM947.834 27.568C947.834 25.0933 948.687 23.0027 950.394 21.296C952.186 19.504 954.319 18.608 956.794 18.608C959.269 18.608 961.359 19.504 963.066 21.296C964.858 23.0027 965.754 25.0933 965.754 27.568C965.754 30.0427 964.858 32.176 963.066 33.968C961.359 35.6747 959.269 36.528 956.794 36.528C954.319 36.528 952.186 35.6747 950.394 33.968C948.687 32.176 947.834 30.0427 947.834 27.568ZM945.786 57.648C945.957 56.7947 945.829 56.0693 945.402 55.472C945.061 54.7893 944.421 54.448 943.482 54.448C942.799 54.448 942.159 54.6187 941.562 54.96L926.586 65.2L921.466 57.648L936.57 47.408C939.215 45.616 942.074 44.72 945.146 44.72C948.047 44.72 950.565 45.5733 952.698 47.28C954.831 48.9867 955.898 51.632 955.898 55.216C955.898 56.5813 955.727 57.9467 955.386 59.312L945.914 98.864C945.658 99.888 945.743 100.699 946.17 101.296C946.682 101.893 947.322 102.192 948.09 102.192C948.687 102.192 949.327 101.979 950.01 101.552L964.73 91.568L969.85 99.12L955.13 109.104C952.399 110.896 949.541 111.792 946.554 111.792C943.653 111.792 941.135 110.939 939.002 109.232C936.869 107.525 935.802 104.88 935.802 101.296C935.802 99.9307 935.973 98.5653 936.314 97.2L945.786 57.648ZM1093.06 71.856C1093.32 70.6613 1093.49 69.68 1093.58 68.912C1093.66 68.0587 1093.7 67.2053 1093.7 66.352C1093.7 62.256 1092.47 59.2267 1089.99 57.264C1087.6 55.216 1084.23 54.192 1079.88 54.192C1074.08 54.192 1069.34 56.2827 1065.67 60.464C1062 64.56 1059.49 69.808 1058.12 76.208L1050.95 110H1040.97L1054.54 46.512H1064.52L1062.6 55.728H1064.14C1066.27 51.888 1069.04 49.1147 1072.46 47.408C1075.95 45.616 1079.62 44.72 1083.46 44.72C1086.19 44.72 1088.8 45.1893 1091.27 46.128C1093.75 46.9813 1095.88 48.2613 1097.67 49.968C1099.55 51.6747 1101 53.7653 1102.02 56.24C1103.13 58.7147 1103.69 61.5733 1103.69 64.816C1103.69 66.9493 1103.43 69.2107 1102.92 71.6L1096.78 100.016C1096.61 100.699 1096.69 101.211 1097.03 101.552C1097.37 101.893 1097.8 102.064 1098.31 102.064C1098.82 102.064 1099.29 101.893 1099.72 101.552L1105.1 97.584L1110.47 105.136L1105.48 108.848C1102.92 110.811 1100.06 111.792 1096.9 111.792C1095.62 111.792 1094.39 111.621 1093.19 111.28C1092 111.024 1090.93 110.555 1089.99 109.872C1089.05 109.104 1088.29 108.123 1087.69 106.928C1087.09 105.733 1086.79 104.24 1086.79 102.448C1086.79 101.339 1086.96 99.9733 1087.3 98.352L1093.06 71.856ZM1185.69 81.328C1185.52 82.0107 1185.39 82.7787 1185.3 83.632C1185.22 84.4853 1185.17 85.3813 1185.17 86.32C1185.17 91.0133 1186.54 94.896 1189.27 97.968C1192 100.955 1196.35 102.448 1202.33 102.448C1205.31 102.448 1207.96 102.107 1210.26 101.424C1212.65 100.741 1214.7 99.8027 1216.41 98.608C1218.11 97.328 1219.56 95.92 1220.76 94.384C1222.04 92.7627 1223.1 91.056 1223.96 89.264L1232.15 93.872C1230.96 96.3467 1229.46 98.6933 1227.67 100.912C1225.88 103.045 1223.74 104.923 1221.27 106.544C1218.8 108.165 1215.94 109.445 1212.69 110.384C1209.45 111.323 1205.74 111.792 1201.56 111.792C1197.72 111.792 1194.18 111.195 1190.93 110C1187.78 108.891 1185.05 107.269 1182.74 105.136C1180.44 102.917 1178.65 100.229 1177.37 97.072C1176.09 93.9147 1175.45 90.3307 1175.45 86.32C1175.45 80.944 1176.3 75.7813 1178.01 70.832C1179.71 65.7973 1182.19 61.36 1185.43 57.52C1188.67 53.68 1192.68 50.608 1197.46 48.304C1202.24 45.9147 1207.66 44.72 1213.72 44.72C1217.98 44.72 1221.7 45.4027 1224.85 46.768C1228.01 48.048 1230.61 49.84 1232.66 52.144C1234.71 54.3627 1236.25 56.9227 1237.27 59.824C1238.29 62.64 1238.81 65.584 1238.81 68.656C1238.81 70.96 1238.55 73.1787 1238.04 75.312L1236.63 81.328H1185.69ZM1212.44 54.192C1209.45 54.192 1206.64 54.6613 1203.99 55.6C1201.43 56.4533 1199.08 57.6907 1196.95 59.312C1194.82 60.9333 1192.98 62.8533 1191.45 65.072C1189.91 67.2053 1188.72 69.552 1187.86 72.112H1228.57C1228.82 70.7467 1228.95 69.4667 1228.95 68.272C1228.95 63.664 1227.37 60.1653 1224.21 57.776C1221.06 55.3867 1217.13 54.192 1212.44 54.192ZM1347.43 100.016C1344.7 104.539 1341.45 107.653 1337.7 109.36C1333.95 110.981 1329.98 111.792 1325.8 111.792C1322.38 111.792 1319.27 111.195 1316.45 110C1313.64 108.805 1311.25 107.141 1309.28 105.008C1307.32 102.789 1305.79 100.144 1304.68 97.072C1303.57 93.9147 1303.01 90.4587 1303.01 86.704C1303.01 81.4133 1303.82 76.2507 1305.44 71.216C1307.07 66.1813 1309.41 61.7013 1312.48 57.776C1315.56 53.8507 1319.31 50.6933 1323.75 48.304C1328.27 45.9147 1333.43 44.72 1339.24 44.72C1343.76 44.72 1347.51 45.6587 1350.5 47.536C1353.57 49.4133 1355.66 52.4 1356.77 56.496H1358.31L1366.24 18.608H1376.23L1359.08 99.248C1358.82 100.784 1359.37 101.552 1360.74 101.552C1361.25 101.552 1361.81 101.339 1362.4 100.912L1367.01 97.584L1372.52 105.136L1366.76 109.488C1365.82 110.171 1364.67 110.725 1363.3 111.152C1362.02 111.579 1360.57 111.792 1358.95 111.792C1357.67 111.792 1356.43 111.621 1355.24 111.28C1354.04 110.939 1352.93 110.427 1351.91 109.744C1350.97 108.976 1350.2 108.037 1349.6 106.928C1349.01 105.733 1348.71 104.283 1348.71 102.576C1348.71 102.149 1348.71 101.723 1348.71 101.296C1348.79 100.869 1348.88 100.443 1348.96 100.016H1347.43ZM1328.87 102.32C1332.28 102.32 1335.52 101.552 1338.6 100.016C1341.75 98.3947 1344.48 96.2187 1346.79 93.488C1349.18 90.7573 1351.05 87.5573 1352.42 83.888C1353.79 80.1333 1354.47 76.08 1354.47 71.728C1354.47 66.4373 1353.15 62.2133 1350.5 59.056C1347.85 55.8133 1344.01 54.192 1338.98 54.192C1334.97 54.192 1331.39 55.088 1328.23 56.88C1325.16 58.5867 1322.51 60.8907 1320.29 63.792C1318.07 66.608 1316.37 69.8933 1315.17 73.648C1314.06 77.4027 1313.51 81.2853 1313.51 85.296C1313.51 96.6453 1318.63 102.32 1328.87 102.32ZM1476.15 41.136C1476.15 43.6107 1475.25 45.744 1473.46 47.536C1471.75 49.2427 1469.66 50.096 1467.19 50.096C1464.71 50.096 1462.58 49.2427 1460.79 47.536C1459.08 45.744 1458.23 43.6107 1458.23 41.136C1458.23 40.5387 1458.27 40.0267 1458.35 39.6L1460.66 28.592C1461.34 25.3493 1462.66 22.8747 1464.63 21.168C1466.59 19.4613 1469.23 18.608 1472.56 18.608H1479.22V25.52H1471.67C1469.28 25.52 1467.83 26.8 1467.31 29.36L1466.67 32.176H1467.19C1469.66 32.176 1471.75 33.072 1473.46 34.864C1475.25 36.5707 1476.15 38.6613 1476.15 41.136ZM1499.44 41.136C1499.44 43.6107 1498.55 45.744 1496.75 47.536C1495.05 49.2427 1492.96 50.096 1490.48 50.096C1488.01 50.096 1485.87 49.2427 1484.08 47.536C1482.38 45.744 1481.52 43.6107 1481.52 41.136C1481.52 40.5387 1481.56 40.0267 1481.65 39.6L1483.95 28.592C1484.64 25.3493 1485.96 22.8747 1487.92 21.168C1489.88 19.4613 1492.53 18.608 1495.86 18.608H1502.51V25.52H1494.96C1492.57 25.52 1491.12 26.8 1490.61 29.36L1489.97 32.176H1490.48C1492.96 32.176 1495.05 33.072 1496.75 34.864C1498.55 36.5707 1499.44 38.6613 1499.44 41.136ZM1590.27 9.90399V0.431992H1596.93C1602.05 0.431992 1606.78 1.28533 1611.14 2.992C1615.57 4.61333 1619.41 7.00266 1622.66 10.16C1625.98 13.232 1628.54 17.072 1630.34 21.68C1632.21 26.288 1633.15 31.536 1633.15 37.424C1633.15 41.52 1632.64 45.9147 1631.62 50.608L1624.58 83.632C1622.78 91.9947 1620.22 99.12 1616.9 105.008C1613.65 110.896 1609.69 115.675 1604.99 119.344C1600.38 123.099 1595.09 125.787 1589.12 127.408C1583.23 129.115 1576.75 129.968 1569.66 129.968H1564.8V120.496H1570.69C1575.98 120.496 1580.97 119.856 1585.66 118.576C1590.36 117.296 1594.62 115.12 1598.46 112.048C1602.3 108.976 1605.63 104.923 1608.45 99.888C1611.35 94.768 1613.61 88.4107 1615.23 80.816L1621.76 49.584C1622.61 45.6587 1623.04 41.8613 1623.04 38.192C1623.04 33.4987 1622.31 29.4027 1620.86 25.904C1619.5 22.32 1617.54 19.3333 1614.98 16.944C1612.5 14.5547 1609.56 12.8053 1606.14 11.696C1602.73 10.5013 1598.98 9.90399 1594.88 9.90399H1590.27Z" fill="white"/>
</svg>
