<svg width="1613" height="120" viewBox="0 0 1613 120" fill="none" xmlns="http://www.w3.org/2000/svg">
<path d="M18.496 23.136C18.496 25.6107 17.6 27.744 15.808 29.536C14.1013 31.2427 12.0107 32.096 9.536 32.096C7.06134 32.096 4.928 31.2427 3.136 29.536C1.42933 27.744 0.576 25.6107 0.576 23.136C0.576 22.5387 0.618667 22.0267 0.704 21.6L3.008 10.592C3.69067 7.34933 5.01333 4.87466 6.976 3.168C8.93867 1.46133 11.584 0.607994 14.912 0.607994H21.568V7.52H14.016C11.6267 7.52 10.176 8.8 9.664 11.36L9.024 14.176H9.536C12.0107 14.176 14.1013 15.072 15.808 16.864C17.6 18.5707 18.496 20.6613 18.496 23.136ZM41.792 23.136C41.792 25.6107 40.896 27.744 39.104 29.536C37.3973 31.2427 35.3067 32.096 32.832 32.096C30.3573 32.096 28.224 31.2427 26.432 29.536C24.7253 27.744 23.872 25.6107 23.872 23.136C23.872 22.5387 23.9147 22.0267 24 21.6L26.304 10.592C26.9867 7.34933 28.3093 4.87466 30.272 3.168C32.2347 1.46133 34.88 0.607994 38.208 0.607994H44.864V7.52H37.312C34.9227 7.52 33.472 8.8 32.96 11.36L32.32 14.176H32.832C35.3067 14.176 37.3973 15.072 39.104 16.864C40.896 18.5707 41.792 20.6613 41.792 23.136ZM179.47 81.248H177.934C175.63 85.344 172.686 88.4587 169.102 90.592C165.518 92.7253 161.166 93.792 156.046 93.792C150.414 93.792 145.849 92.2133 142.35 89.056C138.851 85.8133 137.102 81.0347 137.102 74.72C137.102 73.44 137.145 72.16 137.23 70.88C137.401 69.5147 137.699 68.0213 138.126 66.4L146.574 28.512H156.558L148.366 65.12C147.769 67.7653 147.47 70.24 147.47 72.544C147.47 80.3947 151.694 84.32 160.142 84.32C166.03 84.32 171.022 82.272 175.118 78.176C179.299 73.9947 182.158 68.448 183.694 61.536L191.118 28.512H201.102L189.454 81.248C189.283 81.9307 189.369 82.4853 189.71 82.912C190.051 83.3387 190.521 83.552 191.118 83.552C191.715 83.552 192.313 83.3387 192.91 82.912L198.414 78.944L203.79 86.368L197.39 91.232C196.366 92.0853 195.086 92.7253 193.55 93.152C192.099 93.5787 190.606 93.792 189.07 93.792C187.79 93.792 186.553 93.6213 185.358 93.28C184.163 92.9387 183.097 92.384 182.158 91.616C181.219 90.848 180.451 89.9093 179.854 88.8C179.342 87.6053 179.086 86.1973 179.086 84.576C179.086 84.1493 179.086 83.7227 179.086 83.296C179.171 82.8693 179.257 82.4427 179.342 82.016L179.47 81.248ZM342.364 53.856C342.62 52.6613 342.791 51.68 342.876 50.912C342.961 50.0587 343.004 49.2053 343.004 48.352C343.004 44.256 341.767 41.2267 339.292 39.264C336.903 37.216 333.532 36.192 329.18 36.192C323.377 36.192 318.641 38.2827 314.972 42.464C311.303 46.56 308.785 51.808 307.42 58.208L300.252 92H290.268L303.836 28.512H313.82L311.9 37.728H313.436C315.569 33.888 318.343 31.1147 321.756 29.408C325.255 27.616 328.924 26.72 332.764 26.72C335.495 26.72 338.097 27.1893 340.572 28.128C343.047 28.9813 345.18 30.2613 346.972 31.968C348.849 33.6747 350.3 35.7653 351.324 38.24C352.433 40.7147 352.988 43.5733 352.988 46.816C352.988 48.9493 352.732 51.2107 352.22 53.6L346.076 82.016C345.905 82.6987 345.991 83.2107 346.332 83.552C346.673 83.8933 347.1 84.064 347.612 84.064C348.124 84.064 348.593 83.8933 349.02 83.552L354.396 79.584L359.772 87.136L354.78 90.848C352.22 92.8107 349.361 93.792 346.204 93.792C344.924 93.792 343.687 93.6213 342.492 93.28C341.297 93.024 340.231 92.5547 339.292 91.872C338.353 91.104 337.585 90.1227 336.988 88.928C336.391 87.7333 336.092 86.24 336.092 84.448C336.092 83.3387 336.263 81.9733 336.604 80.352L342.364 53.856ZM491.178 82.016C488.447 86.5387 485.205 89.6533 481.45 91.36C477.695 92.9813 473.727 93.792 469.546 93.792C466.133 93.792 463.018 93.1947 460.202 92C457.386 90.8053 454.997 89.1413 453.034 87.008C451.071 84.7893 449.535 82.144 448.426 79.072C447.317 75.9147 446.762 72.4587 446.762 68.704C446.762 63.4133 447.573 58.2507 449.194 53.216C450.815 48.1813 453.162 43.7013 456.234 39.776C459.306 35.8507 463.061 32.6933 467.498 30.304C472.021 27.9147 477.183 26.72 482.986 26.72C487.509 26.72 491.263 27.6587 494.25 29.536C497.322 31.4133 499.413 34.4 500.522 38.496H502.058L509.994 0.607994H519.978L502.826 81.248C502.57 82.784 503.125 83.552 504.49 83.552C505.002 83.552 505.557 83.3387 506.154 82.912L510.762 79.584L516.266 87.136L510.506 91.488C509.567 92.1707 508.415 92.7253 507.05 93.152C505.77 93.5787 504.319 93.792 502.698 93.792C501.418 93.792 500.181 93.6213 498.986 93.28C497.791 92.9387 496.682 92.4267 495.658 91.744C494.719 90.976 493.951 90.0373 493.354 88.928C492.757 87.7333 492.458 86.2827 492.458 84.576C492.458 84.1493 492.458 83.7227 492.458 83.296C492.543 82.8693 492.629 82.4427 492.714 82.016H491.178ZM472.618 84.32C476.031 84.32 479.274 83.552 482.346 82.016C485.503 80.3947 488.234 78.2187 490.538 75.488C492.927 72.7573 494.805 69.5573 496.17 65.888C497.535 62.1333 498.218 58.08 498.218 53.728C498.218 48.4373 496.895 44.2133 494.25 41.056C491.605 37.8133 487.765 36.192 482.73 36.192C478.719 36.192 475.135 37.088 471.978 38.88C468.906 40.5867 466.261 42.8907 464.042 45.792C461.823 48.608 460.117 51.8933 458.922 55.648C457.813 59.4027 457.258 63.2853 457.258 67.296C457.258 78.6453 462.378 84.32 472.618 84.32ZM617.336 63.328C617.165 64.0107 617.037 64.7787 616.952 65.632C616.867 66.4853 616.824 67.3813 616.824 68.32C616.824 73.0133 618.189 76.896 620.92 79.968C623.651 82.9547 628.003 84.448 633.976 84.448C636.963 84.448 639.608 84.1067 641.912 83.424C644.301 82.7413 646.349 81.8027 648.056 80.608C649.763 79.328 651.213 77.92 652.408 76.384C653.688 74.7627 654.755 73.056 655.608 71.264L663.8 75.872C662.605 78.3467 661.112 80.6933 659.32 82.912C657.528 85.0453 655.395 86.9227 652.92 88.544C650.445 90.1653 647.587 91.4453 644.344 92.384C641.101 93.3227 637.389 93.792 633.208 93.792C629.368 93.792 625.827 93.1947 622.584 92C619.427 90.8907 616.696 89.2693 614.392 87.136C612.088 84.9173 610.296 82.2293 609.016 79.072C607.736 75.9147 607.096 72.3307 607.096 68.32C607.096 62.944 607.949 57.7813 609.656 52.832C611.363 47.7973 613.837 43.36 617.08 39.52C620.323 35.68 624.333 32.608 629.112 30.304C633.891 27.9147 639.309 26.72 645.368 26.72C649.635 26.72 653.347 27.4027 656.504 28.768C659.661 30.048 662.264 31.84 664.312 34.144C666.36 36.3627 667.896 38.9227 668.92 41.824C669.944 44.64 670.456 47.584 670.456 50.656C670.456 52.96 670.2 55.1787 669.688 57.312L668.28 63.328H617.336ZM644.088 36.192C641.101 36.192 638.285 36.6613 635.64 37.6C633.08 38.4533 630.733 39.6907 628.6 41.312C626.467 42.9333 624.632 44.8533 623.096 47.072C621.56 49.2053 620.365 51.552 619.512 54.112H660.216C660.472 52.7467 660.6 51.4667 660.6 50.272C660.6 45.664 659.021 42.1653 655.864 39.776C652.707 37.3867 648.781 36.192 644.088 36.192ZM827.078 28.512V37.728H802.886L787.526 109.664C786.843 112.907 785.478 115.296 783.43 116.832C781.467 118.368 779.291 119.136 776.902 119.136C774.171 119.136 771.953 118.581 770.246 117.472C768.625 116.363 767.217 114.869 766.022 112.992L760.39 103.904L768.198 98.912L773.574 107.488C774.171 108.512 774.939 109.024 775.878 109.024C776.561 109.024 777.03 108.811 777.286 108.384C777.627 108.043 777.883 107.616 778.054 107.104L792.902 37.728H773.318V28.512H794.95L798.278 12.384C798.961 9.48266 800.411 7.09333 802.63 5.216C804.849 3.33866 807.409 2.39999 810.31 2.39999H833.222V11.616H811.974C809.585 11.616 808.134 12.896 807.622 15.456L804.934 28.512H827.078ZM955.284 9.56799C955.284 7.09333 956.137 5.00266 957.844 3.296C959.636 1.504 961.769 0.607994 964.244 0.607994C966.719 0.607994 968.809 1.504 970.516 3.296C972.308 5.00266 973.204 7.09333 973.204 9.56799C973.204 12.0427 972.308 14.176 970.516 15.968C968.809 17.6747 966.719 18.528 964.244 18.528C961.769 18.528 959.636 17.6747 957.844 15.968C956.137 14.176 955.284 12.0427 955.284 9.56799ZM953.236 39.648C953.407 38.7947 953.279 38.0693 952.852 37.472C952.511 36.7893 951.871 36.448 950.932 36.448C950.249 36.448 949.609 36.6187 949.012 36.96L934.036 47.2L928.916 39.648L944.02 29.408C946.665 27.616 949.524 26.72 952.596 26.72C955.497 26.72 958.015 27.5733 960.148 29.28C962.281 30.9867 963.348 33.632 963.348 37.216C963.348 38.5813 963.177 39.9467 962.836 41.312L953.364 80.864C953.108 81.888 953.193 82.6987 953.62 83.296C954.132 83.8933 954.772 84.192 955.54 84.192C956.137 84.192 956.777 83.9787 957.46 83.552L972.18 73.568L977.3 81.12L962.58 91.104C959.849 92.896 956.991 93.792 954.004 93.792C951.103 93.792 948.585 92.9387 946.452 91.232C944.319 89.5253 943.252 86.88 943.252 83.296C943.252 81.9307 943.423 80.5653 943.764 79.2L953.236 39.648ZM1126.11 53.856C1126.37 52.6613 1126.54 51.68 1126.63 50.912C1126.71 50.0587 1126.75 49.2053 1126.75 48.352C1126.75 44.256 1125.52 41.2267 1123.04 39.264C1120.65 37.216 1117.28 36.192 1112.93 36.192C1107.13 36.192 1102.39 38.2827 1098.72 42.464C1095.05 46.56 1092.54 51.808 1091.17 58.208L1084 92H1074.02L1087.59 28.512H1097.57L1095.65 37.728H1097.19C1099.32 33.888 1102.09 31.1147 1105.51 29.408C1109 27.616 1112.67 26.72 1116.51 26.72C1119.24 26.72 1121.85 27.1893 1124.32 28.128C1126.8 28.9813 1128.93 30.2613 1130.72 31.968C1132.6 33.6747 1134.05 35.7653 1135.07 38.24C1136.18 40.7147 1136.74 43.5733 1136.74 46.816C1136.74 48.9493 1136.48 51.2107 1135.97 53.6L1129.83 82.016C1129.66 82.6987 1129.74 83.2107 1130.08 83.552C1130.42 83.8933 1130.85 84.064 1131.36 84.064C1131.87 84.064 1132.34 83.8933 1132.77 83.552L1138.15 79.584L1143.52 87.136L1138.53 90.848C1135.97 92.8107 1133.11 93.792 1129.95 93.792C1128.67 93.792 1127.44 93.6213 1126.24 93.28C1125.05 93.024 1123.98 92.5547 1123.04 91.872C1122.1 91.104 1121.34 90.1227 1120.74 88.928C1120.14 87.7333 1119.84 86.24 1119.84 84.448C1119.84 83.3387 1120.01 81.9733 1120.35 80.352L1126.11 53.856ZM1244.34 63.328C1244.17 64.0107 1244.04 64.7787 1243.95 65.632C1243.87 66.4853 1243.82 67.3813 1243.82 68.32C1243.82 73.0133 1245.19 76.896 1247.92 79.968C1250.65 82.9547 1255 84.448 1260.98 84.448C1263.96 84.448 1266.61 84.1067 1268.91 83.424C1271.3 82.7413 1273.35 81.8027 1275.06 80.608C1276.76 79.328 1278.21 77.92 1279.41 76.384C1280.69 74.7627 1281.75 73.056 1282.61 71.264L1290.8 75.872C1289.61 78.3467 1288.11 80.6933 1286.32 82.912C1284.53 85.0453 1282.39 86.9227 1279.92 88.544C1277.45 90.1653 1274.59 91.4453 1271.34 92.384C1268.1 93.3227 1264.39 93.792 1260.21 93.792C1256.37 93.792 1252.83 93.1947 1249.58 92C1246.43 90.8907 1243.7 89.2693 1241.39 87.136C1239.09 84.9173 1237.3 82.2293 1236.02 79.072C1234.74 75.9147 1234.1 72.3307 1234.1 68.32C1234.1 62.944 1234.95 57.7813 1236.66 52.832C1238.36 47.7973 1240.84 43.36 1244.08 39.52C1247.32 35.68 1251.33 32.608 1256.11 30.304C1260.89 27.9147 1266.31 26.72 1272.37 26.72C1276.63 26.72 1280.35 27.4027 1283.5 28.768C1286.66 30.048 1289.26 31.84 1291.31 34.144C1293.36 36.3627 1294.9 38.9227 1295.92 41.824C1296.94 44.64 1297.46 47.584 1297.46 50.656C1297.46 52.96 1297.2 55.1787 1296.69 57.312L1295.28 63.328H1244.34ZM1271.09 36.192C1268.1 36.192 1265.29 36.6613 1262.64 37.6C1260.08 38.4533 1257.73 39.6907 1255.6 41.312C1253.47 42.9333 1251.63 44.8533 1250.1 47.072C1248.56 49.2053 1247.37 51.552 1246.51 54.112H1287.22C1287.47 52.7467 1287.6 51.4667 1287.6 50.272C1287.6 45.664 1286.02 42.1653 1282.86 39.776C1279.71 37.3867 1275.78 36.192 1271.09 36.192ZM1431.68 82.016C1428.95 86.5387 1425.7 89.6533 1421.95 91.36C1418.2 92.9813 1414.23 93.792 1410.05 93.792C1406.63 93.792 1403.52 93.1947 1400.7 92C1397.89 90.8053 1395.5 89.1413 1393.53 87.008C1391.57 84.7893 1390.04 82.144 1388.93 79.072C1387.82 75.9147 1387.26 72.4587 1387.26 68.704C1387.26 63.4133 1388.07 58.2507 1389.69 53.216C1391.32 48.1813 1393.66 43.7013 1396.73 39.776C1399.81 35.8507 1403.56 32.6933 1408 30.304C1412.52 27.9147 1417.68 26.72 1423.49 26.72C1428.01 26.72 1431.76 27.6587 1434.75 29.536C1437.82 31.4133 1439.91 34.4 1441.02 38.496H1442.56L1450.49 0.607994H1460.48L1443.33 81.248C1443.07 82.784 1443.62 83.552 1444.99 83.552C1445.5 83.552 1446.06 83.3387 1446.65 82.912L1451.26 79.584L1456.77 87.136L1451.01 91.488C1450.07 92.1707 1448.92 92.7253 1447.55 93.152C1446.27 93.5787 1444.82 93.792 1443.2 93.792C1441.92 93.792 1440.68 93.6213 1439.49 93.28C1438.29 92.9387 1437.18 92.4267 1436.16 91.744C1435.22 90.976 1434.45 90.0373 1433.85 88.928C1433.26 87.7333 1432.96 86.2827 1432.96 84.576C1432.96 84.1493 1432.96 83.7227 1432.96 83.296C1433.04 82.8693 1433.13 82.4427 1433.21 82.016H1431.68ZM1413.12 84.32C1416.53 84.32 1419.77 83.552 1422.85 82.016C1426 80.3947 1428.73 78.2187 1431.04 75.488C1433.43 72.7573 1435.3 69.5573 1436.67 65.888C1438.04 62.1333 1438.72 58.08 1438.72 53.728C1438.72 48.4373 1437.4 44.2133 1434.75 41.056C1432.1 37.8133 1428.26 36.192 1423.23 36.192C1419.22 36.192 1415.64 37.088 1412.48 38.88C1409.41 40.5867 1406.76 42.8907 1404.54 45.792C1402.32 48.608 1400.62 51.8933 1399.42 55.648C1398.31 59.4027 1397.76 63.2853 1397.76 67.296C1397.76 78.6453 1402.88 84.32 1413.12 84.32ZM1586 23.136C1586 25.6107 1585.1 27.744 1583.31 29.536C1581.6 31.2427 1579.51 32.096 1577.04 32.096C1574.56 32.096 1572.43 31.2427 1570.64 29.536C1568.93 27.744 1568.08 25.6107 1568.08 23.136C1568.08 22.5387 1568.12 22.0267 1568.2 21.6L1570.51 10.592C1571.19 7.34933 1572.51 4.87466 1574.48 3.168C1576.44 1.46133 1579.08 0.607994 1582.41 0.607994H1589.07V7.52H1581.52C1579.13 7.52 1577.68 8.8 1577.16 11.36L1576.52 14.176H1577.04C1579.51 14.176 1581.6 15.072 1583.31 16.864C1585.1 18.5707 1586 20.6613 1586 23.136ZM1609.29 23.136C1609.29 25.6107 1608.4 27.744 1606.6 29.536C1604.9 31.2427 1602.81 32.096 1600.33 32.096C1597.86 32.096 1595.72 31.2427 1593.93 29.536C1592.23 27.744 1591.37 25.6107 1591.37 23.136C1591.37 22.5387 1591.41 22.0267 1591.5 21.6L1593.8 10.592C1594.49 7.34933 1595.81 4.87466 1597.77 3.168C1599.73 1.46133 1602.38 0.607994 1605.71 0.607994H1612.36V7.52H1604.81C1602.42 7.52 1600.97 8.8 1600.46 11.36L1599.82 14.176H1600.33C1602.81 14.176 1604.9 15.072 1606.6 16.864C1608.4 18.5707 1609.29 20.6613 1609.29 23.136Z" fill="white"/>
</svg>
