    <svg
      width="205"
      height="280"
      viewBox="0 0 205 280"
      fill="none"
      class="my-auto"
      xmlns="http://www.w3.org/2000/svg"
    >
      <rect
        x="0.0650635"
        y="0.797729"
        width="204.022"
        height="279.202"
        rx="20"
        fill="#374151"
      />
      <ellipse
        cx="102.484"
        cy="140.798"
        rx="49.3732"
        ry="48.2621"
        fill="#4B5563"
      />
      <path
        d="M73.8339 68.2104C73.4548 68.1992 73.0729 68.2455 72.7059 68.3522C67.0389 69.6841 61.4217 71.2482 55.9393 73.1873C51.8429 74.6194 47.8458 76.3834 44.227 78.7579C42.756 79.726 41.3292 80.7575 39.99 81.8946C39.6736 82.1667 39.3251 82.453 39.2372 82.8827C39.665 85.4662 42.1819 86.8583 44.3562 87.9381C47.9281 89.5449 51.9539 90.4671 55.8921 90.0317C54.72 89.0579 53.0908 88.9034 51.8514 88.0413C51.3474 87.6718 51.3359 87.0071 51.2011 86.4658C49.9909 86.7007 48.8421 87.1533 47.6436 87.4254C48.7483 86.7609 49.9499 86.271 51.0985 85.6867C57.2402 83.1117 63.8798 82.0031 70.464 81.1209C75.0527 80.6311 79.7382 80.4765 84.1774 79.1217C83.817 78.1478 83.6353 76.7187 82.3489 76.5669C79.5828 75.1548 78.2587 72.2446 76.6646 69.7871C76.0801 68.7946 74.971 68.2438 73.8339 68.2104Z"
        fill="#E5E7EB"
      />
      <path
        d="M130.653 68.2141C129.774 68.201 128.897 68.4535 128.268 69.0797C127.38 69.9848 126.865 71.1533 126.185 72.1988C125.212 73.8543 123.955 75.3897 122.291 76.4209C121.863 76.6959 121.213 76.6442 120.958 77.1455C120.577 77.7584 120.333 78.4518 120.201 79.1535C124.646 80.4482 129.305 80.5854 133.88 81.144C141.135 82.0376 148.472 83.338 155.083 86.5317C155.642 86.8295 156.214 87.1273 156.773 87.4337C155.569 87.1301 154.385 86.7463 153.193 86.4083C152.996 86.9926 152.976 87.7288 152.39 88.0954C151.168 88.9002 149.571 89.0495 148.463 90.0262C150.345 90.2726 152.252 90.1007 154.11 89.7598C157.725 89.0724 161.412 87.7577 164.052 85.1513L164.084 85.1626C164.664 84.3978 164.981 83.4956 165.098 82.5533C160.867 78.7238 155.751 75.9138 150.386 73.906C144.346 71.6289 138.111 69.8845 131.829 68.3865C131.452 68.2809 131.052 68.2201 130.653 68.2141V68.2141Z"
        fill="#E5E7EB"
      />
      <path
        d="M102.175 48.6614C101.921 48.6521 101.668 48.8079 101.621 49.1502C100.578 52.51 99.6491 55.9844 97.68 58.969C96.9709 60.0688 95.948 60.9423 94.7935 61.5753C92.0039 63.1335 88.8923 63.9956 85.8449 64.9294C85.3644 65.0525 84.9747 65.359 84.6289 65.6913C84.9805 65.9777 85.3465 66.2699 85.8007 66.4016C89.0767 67.4242 92.4698 68.318 95.403 70.1425C97.1406 71.1908 98.1575 72.9952 99.0072 74.7481H99.0334C100.12 77.1942 100.862 79.7607 101.659 82.3041C101.885 83.0374 102.784 82.6106 102.799 82.0062C103.467 79.5659 104.311 77.1798 105.24 74.8282L105.175 74.6596L105.377 74.6021C105.928 73.6798 106.362 72.686 107.054 71.8468C107.9 70.704 109.155 69.9593 110.403 69.3034C110.857 69.0914 111.317 68.8793 111.777 68.6702C113.96 67.7852 116.219 67.1035 118.475 66.4247C118.921 66.2328 119.662 66.1011 119.533 65.4681C119.123 65.133 118.613 64.9553 118.115 64.8035C115.15 63.9184 112.141 63.042 109.445 61.5153C108.287 60.8737 107.291 59.9684 106.593 58.8628C104.683 55.9012 103.748 52.4841 102.735 49.1645C102.685 48.8451 102.43 48.6707 102.175 48.6614H102.175Z"
        fill="#E5E7EB"
      />
      <path
        d="M115.041 137.308C115.041 136.094 114.554 134.88 113.577 133.95L95.7357 117.055C94.8431 116.132 93.5578 115.67 92.1909 115.67C90.9973 115.67 89.7222 116.132 88.7327 117.056L70.8961 133.946C69.9202 134.883 69.4321 136.091 69.4321 137.221C69.4321 138.434 69.9203 139.652 70.896 140.582L88.7377 157.478C89.7195 158.401 91.0013 158.864 92.2826 158.864C93.5638 158.864 94.8461 158.402 95.8274 157.478L113.669 140.582C114.643 139.732 115.041 138.525 115.041 137.308ZM79.2253 139.626C77.8736 139.626 76.8688 138.588 76.8688 137.395C76.8688 136.202 77.9654 135.163 79.2253 135.163C80.4851 135.163 81.6735 136.033 81.6735 137.308C81.6735 138.583 80.582 139.626 79.2253 139.626ZM92.2827 151.991C90.931 151.991 89.9262 150.952 89.9262 149.759C89.9262 148.566 91.0228 147.528 92.2827 147.528C93.5425 147.528 94.6391 148.566 94.6391 149.759C94.6391 150.952 93.6394 151.991 92.2827 151.991ZM92.2827 139.626C90.931 139.626 89.9262 138.588 89.9262 137.395C89.9262 136.202 91.0228 135.163 92.2827 135.163C93.5425 135.163 94.7309 136.033 94.7309 137.308C94.7309 138.583 93.6394 139.626 92.2827 139.626ZM92.2827 127.261C90.931 127.261 89.9262 126.223 89.9262 125.03C89.9262 123.837 91.0228 122.799 92.2827 122.799C93.5425 122.799 94.6391 123.837 94.6391 125.03C94.6391 126.223 93.6394 127.261 92.2827 127.261ZM105.34 139.626C103.988 139.626 102.984 138.588 102.984 137.395C102.984 136.202 104.08 135.163 105.34 135.163C106.6 135.163 107.697 136.202 107.697 137.395C107.697 138.588 106.697 139.626 105.34 139.626ZM129.731 134.217H117.622C118.073 135.209 118.296 136.269 118.296 137.33C118.296 139.33 117.494 141.327 115.885 142.85L101.991 156.006V160.486C102.076 163.051 104.269 165.128 106.972 165.128H129.731C132.434 165.128 134.536 163.051 134.536 160.578V138.853C134.627 136.293 132.526 134.217 129.731 134.217ZM118.306 151.991C116.954 151.991 115.949 150.952 115.949 149.759C115.949 148.566 117.046 147.528 118.306 147.528C119.565 147.528 120.662 148.566 120.662 149.759C120.662 150.952 119.744 151.991 118.306 151.991Z"
        fill="#E5E7EB"
      />
    </svg>